<svg width="16" height="18" viewBox="0 0 16 18" fill="none" xmlns="http://www.w3.org/2000/svg">
<path d="M6.45509 1.08178C6.44313 1.15543 6.43762 1.22997 6.43859 1.30455L6.43859 14.0033L6.3098 13.7264C6.18169 13.4557 6.00734 13.2095 5.79464 12.9987L2.23359 9.43767C1.78589 8.96867 1.06567 8.88987 0.527128 9.25093C-0.046752 9.67114 -0.171356 10.477 0.248861 11.0509C0.28283 11.0973 0.319857 11.1414 0.359701 11.1828L6.7992 17.6223C7.30188 18.1255 8.11732 18.126 8.62057 17.6233C8.62089 17.623 8.62125 17.6226 8.62158 17.6223L15.0611 11.1828C15.5633 10.6791 15.5622 9.86368 15.0585 9.3614C15.0189 9.32188 14.9767 9.28497 14.9323 9.25092C14.3937 8.88987 13.6735 8.96867 13.2258 9.43767L9.65834 12.9923C9.46918 13.1812 9.31056 13.3985 9.18825 13.6362L9.01439 14.0226L9.01439 1.37542C9.03882 0.717504 8.57924 0.140283 7.93255 0.0166851C7.23044 -0.097174 6.56899 0.379673 6.45509 1.08178Z" fill="white"/>
</svg>
