<svg width="39" height="42" viewBox="0 0 39 42" fill="none" xmlns="http://www.w3.org/2000/svg">
<path d="M16.0895 28.25C15.0908 28.0732 14.1785 27.9396 13.2784 27.7466C11.1947 27.2999 9.24459 26.5388 7.58464 25.1595C5.39298 23.3404 4.32144 20.9152 3.88553 18.1729C3.59673 16.3524 3.49686 14.5197 3.85044 12.6884C4.19053 10.9272 4.96517 9.37523 6.13793 8.02433C6.3606 7.76792 6.41998 7.56414 6.30932 7.22135C5.59811 5.04453 5.82078 2.8974 6.61567 0.792104C6.67505 0.634207 6.97465 0.454717 7.14334 0.470912C7.85995 0.541088 8.58871 0.615313 9.27833 0.808299C10.9491 1.27389 12.4349 2.143 13.8992 3.0499C14.0962 3.17136 14.4093 3.22264 14.6347 3.16866C18.9074 2.12951 23.1787 2.09442 27.4473 3.16326C27.8481 3.26313 28.1396 3.19025 28.473 2.97432C30.0924 1.92842 31.7686 0.966196 33.6876 0.612614C35.7754 0.227993 35.469 0.276577 35.9441 1.9986C36.438 3.78945 36.4272 5.59515 35.859 7.3833C35.8145 7.5223 35.8617 7.75577 35.9576 7.86509C38.0844 10.3024 38.7781 13.1594 38.5217 16.3254C38.3665 18.2391 38.0386 20.1001 37.1978 21.8424C35.7362 24.8653 33.2193 26.5685 30.0762 27.4295C28.8009 27.779 27.4864 27.9842 26.1801 28.2568C26.1801 28.246 26.1666 28.2905 26.1814 28.308C27.5148 29.7075 27.8886 31.4363 27.8832 33.2919C27.8765 35.6024 27.8711 37.9128 27.8508 40.2232C27.8454 40.8939 27.8886 41.5161 28.6376 41.8508C23.5525 41.8508 18.4661 41.8508 13.242 41.8508C14.3391 41.5943 14.3553 40.8319 14.3391 40.0194C14.3135 38.7077 14.3324 37.3946 14.3324 36.0545C13.5254 36.1435 12.7966 36.2596 12.0651 36.2974C10.0867 36.3986 8.23783 36.0207 6.68449 34.6901C5.96923 34.0774 5.43211 33.3324 5.07853 32.4539C4.39161 30.7453 3.42803 29.2514 1.79238 28.2851C1.59265 28.1663 1.39831 28.0111 1.25661 27.829C1.12301 27.6562 0.946214 27.3863 1.0002 27.2352C1.05823 27.0705 1.36053 26.8991 1.55891 26.8964C2.10683 26.8897 2.68038 26.8843 3.19996 27.0327C4.65073 27.4457 5.66828 28.4376 6.44428 29.6954C7.25266 31.0058 8.3215 32.0004 9.84784 32.3783C11.3242 32.7427 12.7615 32.5132 14.1475 31.9343C14.2838 31.8776 14.4201 31.6833 14.4484 31.5321C14.6752 30.3081 15.1435 29.2109 16.0895 28.25Z" fill="white"/>
</svg>
