<svg width="31" height="32" viewBox="0 0 31 32" fill="none" xmlns="http://www.w3.org/2000/svg">
<path d="M30.2147 31.1771C28.1413 31.1771 26.0678 31.1771 23.9574 31.1771C23.9574 31.0417 23.9574 30.9276 23.9574 30.8135C23.9558 27.4205 23.9661 24.0267 23.9433 20.6336C23.9385 19.9302 23.8701 19.2165 23.7324 18.5264C23.3476 16.5946 22.0846 15.8431 20.1796 16.0445C18.4091 16.2318 17.4247 17.1973 17.1265 19.0284C17.0053 19.772 16.9526 20.5337 16.9479 21.2875C16.929 24.4547 16.94 27.6219 16.94 30.7892C16.94 30.9056 16.94 31.0221 16.94 31.1582C14.8524 31.1582 12.7837 31.1582 10.6992 31.1582C10.6992 24.4461 10.6992 17.7426 10.6992 11.0187C12.6877 11.0187 14.669 11.0187 16.6921 11.0187C16.6921 11.9189 16.6921 12.8246 16.6921 13.8137C16.7865 13.7067 16.8275 13.6721 16.8542 13.628C17.9094 11.874 19.5037 10.9141 21.4819 10.6009C23.0155 10.3577 24.5452 10.4836 26.0183 11.0132C27.9414 11.7041 29.0525 13.137 29.6293 15.0428C29.944 16.0839 30.0865 17.1532 30.1581 18.2344C30.1691 18.3989 30.195 18.5618 30.2147 18.7254C30.2147 22.8755 30.2147 27.0263 30.2147 31.1771Z" fill="white"/>
<path d="M4.07001 0.960693C4.34227 1.03702 4.62161 1.09604 4.886 1.19361C6.55971 1.8121 7.52836 3.54718 7.18685 5.30035C6.85557 7.00317 5.30305 8.27871 3.59552 8.25195C1.82031 8.22363 0.318148 6.91268 0.045886 5.15242C-0.258638 3.18443 1.05074 1.36122 3.01873 1.01341C3.07539 1.00319 3.12968 0.978792 3.18476 0.960693C3.47984 0.960693 3.77493 0.960693 4.07001 0.960693Z" fill="white"/>
<path d="M0.513672 11.0076C2.60442 11.0076 4.6574 11.0076 6.73792 11.0076C6.73792 17.722 6.73792 24.4294 6.73792 31.1565C4.67156 31.1565 2.60206 31.1565 0.513672 31.1565C0.513672 24.4499 0.513672 17.7409 0.513672 11.0076Z" fill="white"/>
</svg>
