<svg width="34" height="26" viewBox="0 0 34 26" fill="none" xmlns="http://www.w3.org/2000/svg">
<path d="M33.8623 7.77212C33.8623 12.9484 33.8623 18.1247 33.8623 23.3011C33.85 23.3187 33.8306 23.3345 33.8253 23.3548C33.3769 25.1469 32.2879 25.9989 30.4394 25.9989C21.4418 25.9989 12.4452 25.9989 3.44764 25.9989C3.33751 25.9989 3.22737 26.0007 3.11724 25.9963C1.34276 25.9328 0.032597 24.5989 0.0308349 22.8244C0.0246673 17.8904 0.0281916 12.9572 0.0299538 8.02323C0.0299538 7.94393 0.0458131 7.86552 0.056386 7.77124C0.116299 7.80384 0.146256 7.81794 0.172688 7.83556C4.74194 10.8823 9.31032 13.9291 13.8796 16.9749C15.9289 18.3415 17.9589 18.3441 20.011 16.9767C24.0956 14.2559 28.1776 11.5325 32.2623 8.81179C32.7918 8.45936 33.3293 8.11838 33.8623 7.77212Z" fill="white"/>
<path d="M33.8625 4.20377C33.7365 4.54034 33.6696 4.91833 33.4705 5.20468C33.2 5.59499 32.8819 5.99324 32.4942 6.25403C27.9012 9.34308 23.2958 12.4145 18.6816 15.4718C17.5442 16.226 16.3432 16.2225 15.2058 15.4692C10.5828 12.4048 5.97124 9.3237 1.35969 6.2417C0.253062 5.5016 -0.205097 4.22051 0.146452 2.94208C0.505931 1.63632 1.6249 0.744675 3.01876 0.654806C3.11744 0.647757 3.217 0.646876 3.31568 0.646876C12.4013 0.646876 21.487 0.645995 30.5717 0.646876C32.0766 0.646876 33.2528 1.45218 33.6978 2.77996C33.7603 2.96586 33.8079 3.15618 33.8625 3.34385C33.8625 3.63108 33.8625 3.91742 33.8625 4.20377Z" fill="white"/>
</svg>
